<svg width="1510" height="3500" viewBox="0 0 1510 3500" fill="none" xmlns="http://www.w3.org/2000/svg">
<g clip-path="url(#clip0_233_89)">
<rect width="1510" height="3500" fill="url(#paint0_linear_233_89)"/>
<path style="mix-blend-mode:overlay" d="M1510 192C1098 121.83 128.5 82.2242 0 185.618V0H748.032H1510V192Z" fill="url(#paint1_linear_233_89)"/>
<path style="mix-blend-mode:overlay" d="M1510 183.97C762.5 -23.35 226.5 255.789 0 177.855V0H748.032H1510V183.97Z" fill="url(#paint2_linear_233_89)"/>
<path style="mix-blend-mode:overlay" d="M1510 146.847C1457 -1.52588e-05 716 293.695 0 124.896V0H748.032H1510V146.847Z" fill="url(#paint3_linear_233_89)"/>
<path d="M1510 1464.47C748.032 1464.47 748.032 1464.47 0 1471V96H748.032H1510V1464.47Z" fill="url(#paint4_radial_233_89)" style="mix-blend-mode:overlay"/>
<path d="M1510 1999.09C748.032 1999.09 748.032 1999.09 0 2004V970H748.032H1510V1999.09Z" fill="url(#paint5_radial_233_89)" style="mix-blend-mode:overlay"/>
<path d="M1510 2584.02C748.032 2584.02 748.032 2584.02 0 2588V1750H748.032H1510V2584.02Z" fill="url(#paint6_radial_233_89)" style="mix-blend-mode:overlay"/>
<path d="M1510 3234.02C748.032 3234.02 748.032 3234.02 0 3238V2400H748.032H1510V3234.02Z" fill="url(#paint7_radial_233_89)" style="mix-blend-mode:overlay"/>
<path d="M1510 3882.98C748.032 3882.98 748.032 3882.98 0 3887V3040H748.032H1510V3882.98Z" fill="url(#paint8_radial_233_89)" style="mix-blend-mode:overlay"/>
<path style="mix-blend-mode:overlay" d="M1510 2075C1039 1870 654.5 1844.5 0 2029V1870H748.032H1510V2075Z" fill="url(#paint9_linear_233_89)"/>
<path style="mix-blend-mode:overlay" d="M1510 2056C1194.5 1879.58 731.5 1857.07 0 2046.16V1760H748.032H1510V2056Z" fill="url(#paint10_linear_233_89)"/>
<path style="mix-blend-mode:overlay" d="M1510 1616C1095.5 1820 424.5 1902.64 0 1616V1852H748.032H1510V1616Z" fill="url(#paint11_linear_233_89)"/>
<path style="mix-blend-mode:overlay" d="M1510 1582C731 1883 306 1888.5 0 1597.76V2056H748.032H1510V1582Z" fill="url(#paint12_linear_233_89)"/>
<path style="mix-blend-mode:overlay" d="M1510 2715C1039 2510 654.5 2484.5 0 2669V2510H748.032H1510V2715Z" fill="url(#paint13_linear_233_89)"/>
<path style="mix-blend-mode:overlay" d="M1510 2696C1194.5 2519.58 731.5 2497.07 0 2686.16V2400H748.032H1510V2696Z" fill="url(#paint14_linear_233_89)"/>
<path style="mix-blend-mode:overlay" d="M1510 2256C1095.5 2460 424.5 2542.64 0 2256V2492H748.032H1510V2256Z" fill="url(#paint15_linear_233_89)"/>
<path style="mix-blend-mode:overlay" d="M1510 2299C731 2484 343 2464 0 2321.5V2696H748.032H1510V2299Z" fill="url(#paint16_linear_233_89)"/>
<path style="mix-blend-mode:overlay" d="M1510 3355C1039 3150 654.5 3124.5 0 3309V3150H748.032H1510V3355Z" fill="url(#paint17_linear_233_89)"/>
<path style="mix-blend-mode:overlay" d="M1510 3336C1194.5 3159.58 731.5 3137.07 0 3326.16V3040H748.032H1510V3336Z" fill="url(#paint18_linear_233_89)"/>
<path style="mix-blend-mode:overlay" d="M0 2953.44C91.1551 3055 189.123 3120.9 292.46 3159.24H748.032H844.56C1059.36 3102.55 1284.14 2998.22 1510 2896V3159.24H844.56C650.148 3210.56 463.915 3222.85 292.46 3159.24H0V2953.44Z" fill="url(#paint19_linear_233_89)"/>
<path style="mix-blend-mode:overlay" d="M1510 2939C1341 3104 579 3220 0 3043.5V3336H748.032H1510V2939Z" fill="url(#paint20_linear_233_89)"/>
<path style="mix-blend-mode:overlay" d="M1510 1259C1039 1054 654.5 1028.5 0 1213V1054H748.032H1510V1259Z" fill="url(#paint21_linear_233_89)"/>
<path style="mix-blend-mode:overlay" d="M1510 1240C1194.5 1063.58 731.5 1041.07 0 1230.16V944H748.032H1510V1240Z" fill="url(#paint22_linear_233_89)"/>
<path style="mix-blend-mode:overlay" d="M1510 800C1254.5 1004 424.5 1047.77 0 800V1004H748.032H1510V800Z" fill="url(#paint23_linear_233_89)"/>
<path style="mix-blend-mode:overlay" d="M1510 766C1194.5 1048.5 731.5 1084.55 0 781.757V1240H748.032H1510V766Z" fill="url(#paint24_linear_233_89)"/>
<path style="mix-blend-mode:overlay" d="M1510 455C1254.5 260 424.5 218.161 0 455V260H748.032H1510V455Z" fill="url(#paint25_linear_233_89)"/>
<path style="mix-blend-mode:overlay" d="M1510 489C1194.5 197.556 731.5 160.369 0 472.745V0H748.032H1510V489Z" fill="url(#paint26_linear_233_89)"/>
</g>
<defs>
<linearGradient id="paint0_linear_233_89" x1="755" y1="0" x2="755" y2="3500" gradientUnits="userSpaceOnUse">
<stop stop-color="#0000FF"/>
<stop offset="0.0356737" stop-color="#0000FF" stop-opacity="0.48"/>
<stop offset="0.055931" stop-color="#EEEEEE" stop-opacity="0"/>
<stop offset="0.182292" stop-color="#EEEEEE"/>
</linearGradient>
<linearGradient id="paint1_linear_233_89" x1="755" y1="192" x2="755" y2="-6.05124e-05" gradientUnits="userSpaceOnUse">
<stop stop-color="#0000FF"/>
<stop offset="1" stop-color="#EEEEEE" stop-opacity="0"/>
</linearGradient>
<linearGradient id="paint2_linear_233_89" x1="755" y1="192" x2="755" y2="2.28882e-05" gradientUnits="userSpaceOnUse">
<stop stop-color="#0000FF" stop-opacity="0.52"/>
<stop offset="1" stop-color="#EEEEEE" stop-opacity="0.62"/>
</linearGradient>
<linearGradient id="paint3_linear_233_89" x1="755" y1="223.677" x2="755" y2="0.000193317" gradientUnits="userSpaceOnUse">
<stop stop-color="#0000FF"/>
<stop offset="0.497731" stop-color="#EEEEEE" stop-opacity="0.54"/>
</linearGradient>
<radialGradient id="paint4_radial_233_89" cx="0" cy="0" r="1" gradientUnits="userSpaceOnUse" gradientTransform="translate(769.5 626) rotate(-91.5671) scale(530.199 1348.41)">
<stop stop-color="#0000FF"/>
<stop offset="0.527901" stop-color="#0000FF"/>
<stop offset="1" stop-color="#EEEEEE" stop-opacity="0"/>
</radialGradient>
<radialGradient id="paint5_radial_233_89" cx="0" cy="0" r="1" gradientUnits="userSpaceOnUse" gradientTransform="translate(755 1487) rotate(-90) scale(517 1748.46)">
<stop stop-color="#0000FF"/>
<stop offset="0.456548" stop-color="#0000FF"/>
<stop offset="0.944907" stop-color="#EEEEEE" stop-opacity="0"/>
</radialGradient>
<radialGradient id="paint6_radial_233_89" cx="0" cy="0" r="1" gradientUnits="userSpaceOnUse" gradientTransform="translate(755 2169) rotate(-90) scale(419 1748.46)">
<stop stop-color="#0000FF"/>
<stop offset="0.456548" stop-color="#0000FF"/>
<stop offset="0.944907" stop-color="#EEEEEE" stop-opacity="0"/>
</radialGradient>
<radialGradient id="paint7_radial_233_89" cx="0" cy="0" r="1" gradientUnits="userSpaceOnUse" gradientTransform="translate(771.5 2844.5) rotate(-92.1259) scale(444.806 1856.15)">
<stop offset="0.0239339" stop-color="#0000FF"/>
<stop offset="0.497416" stop-color="#0000FF"/>
<stop offset="0.944907" stop-color="#EEEEEE" stop-opacity="0"/>
</radialGradient>
<radialGradient id="paint8_radial_233_89" cx="0" cy="0" r="1" gradientUnits="userSpaceOnUse" gradientTransform="translate(755 3464) rotate(-90) scale(424 1750.58)">
<stop offset="0.0239339" stop-color="#0000FF"/>
<stop offset="0.464268" stop-color="#0000FF"/>
<stop offset="0.731026" stop-color="#EEEEEE" stop-opacity="0"/>
</radialGradient>
<linearGradient id="paint9_linear_233_89" x1="755" y1="2122.21" x2="755" y2="1870" gradientUnits="userSpaceOnUse">
<stop stop-color="#0000FF"/>
<stop offset="0.384517" stop-color="#EEEEEE"/>
<stop offset="0.920401" stop-color="#EEEEEE" stop-opacity="0"/>
</linearGradient>
<linearGradient id="paint10_linear_233_89" x1="755" y1="2082.58" x2="755" y2="1760" gradientUnits="userSpaceOnUse">
<stop stop-color="#EEEEEE"/>
<stop offset="0.761536" stop-color="white" stop-opacity="0.04"/>
<stop offset="1" stop-color="white" stop-opacity="0"/>
</linearGradient>
<linearGradient id="paint11_linear_233_89" x1="755" y1="1477.66" x2="755" y2="1852" gradientUnits="userSpaceOnUse">
<stop stop-color="#0000FF"/>
<stop offset="0.384517" stop-color="#EEEEEE"/>
<stop offset="0.920401" stop-color="#EEEEEE" stop-opacity="0"/>
</linearGradient>
<linearGradient id="paint12_linear_233_89" x1="755" y1="1539.43" x2="755" y2="2056" gradientUnits="userSpaceOnUse">
<stop stop-color="#EEEEEE"/>
<stop offset="0.761536" stop-color="white" stop-opacity="0.04"/>
<stop offset="1" stop-color="white" stop-opacity="0"/>
</linearGradient>
<linearGradient id="paint13_linear_233_89" x1="755" y1="2762.21" x2="755" y2="2510" gradientUnits="userSpaceOnUse">
<stop stop-color="#0000FF"/>
<stop offset="0.384517" stop-color="#EEEEEE"/>
<stop offset="0.920401" stop-color="#EEEEEE" stop-opacity="0"/>
</linearGradient>
<linearGradient id="paint14_linear_233_89" x1="755" y1="2722.58" x2="755" y2="2400" gradientUnits="userSpaceOnUse">
<stop stop-color="#EEEEEE"/>
<stop offset="0.761536" stop-color="white" stop-opacity="0.04"/>
<stop offset="1" stop-color="white" stop-opacity="0"/>
</linearGradient>
<linearGradient id="paint15_linear_233_89" x1="755" y1="2117.66" x2="755" y2="2492" gradientUnits="userSpaceOnUse">
<stop stop-color="#0000FF"/>
<stop offset="0.384517" stop-color="#EEEEEE"/>
<stop offset="0.920401" stop-color="#EEEEEE" stop-opacity="0"/>
</linearGradient>
<linearGradient id="paint16_linear_233_89" x1="755" y1="2179.43" x2="755" y2="2696" gradientUnits="userSpaceOnUse">
<stop stop-color="#EEEEEE"/>
<stop offset="0.761536" stop-color="white" stop-opacity="0.04"/>
<stop offset="1" stop-color="white" stop-opacity="0"/>
</linearGradient>
<linearGradient id="paint17_linear_233_89" x1="755" y1="3402.21" x2="755" y2="3150" gradientUnits="userSpaceOnUse">
<stop stop-color="#0000FF"/>
<stop offset="0.384517" stop-color="#EEEEEE"/>
<stop offset="0.920401" stop-color="#EEEEEE" stop-opacity="0"/>
</linearGradient>
<linearGradient id="paint18_linear_233_89" x1="755" y1="3362.58" x2="755" y2="3040" gradientUnits="userSpaceOnUse">
<stop stop-color="#EEEEEE"/>
<stop offset="0.761536" stop-color="white" stop-opacity="0.04"/>
<stop offset="1" stop-color="white" stop-opacity="0"/>
</linearGradient>
<linearGradient id="paint19_linear_233_89" x1="755" y1="2741.69" x2="755" y2="3159.24" gradientUnits="userSpaceOnUse">
<stop stop-color="#0000FF"/>
<stop offset="0.384517" stop-color="#EEEEEE"/>
<stop offset="0.920401" stop-color="#EEEEEE" stop-opacity="0"/>
</linearGradient>
<linearGradient id="paint20_linear_233_89" x1="755" y1="2819.43" x2="755" y2="3336" gradientUnits="userSpaceOnUse">
<stop stop-color="#EEEEEE"/>
<stop offset="0.761536" stop-color="white" stop-opacity="0.04"/>
<stop offset="1" stop-color="white" stop-opacity="0"/>
</linearGradient>
<linearGradient id="paint21_linear_233_89" x1="755" y1="1306.21" x2="755" y2="1054" gradientUnits="userSpaceOnUse">
<stop stop-color="#0000FF"/>
<stop offset="0.384517" stop-color="#EEEEEE"/>
<stop offset="0.920401" stop-color="#EEEEEE" stop-opacity="0"/>
</linearGradient>
<linearGradient id="paint22_linear_233_89" x1="755" y1="1266.58" x2="755" y2="944" gradientUnits="userSpaceOnUse">
<stop stop-color="#EEEEEE"/>
<stop offset="0.761536" stop-color="white" stop-opacity="0.04"/>
<stop offset="1" stop-color="white" stop-opacity="0"/>
</linearGradient>
<linearGradient id="paint23_linear_233_89" x1="755" y1="680.414" x2="755" y2="1004" gradientUnits="userSpaceOnUse">
<stop stop-color="#0000FF"/>
<stop offset="0.384517" stop-color="#EEEEEE"/>
<stop offset="0.920401" stop-color="#EEEEEE" stop-opacity="0"/>
</linearGradient>
<linearGradient id="paint24_linear_233_89" x1="755" y1="723.432" x2="755" y2="1240" gradientUnits="userSpaceOnUse">
<stop stop-color="#EEEEEE"/>
<stop offset="0.761536" stop-color="white" stop-opacity="0.04"/>
<stop offset="1" stop-color="white" stop-opacity="0"/>
</linearGradient>
<linearGradient id="paint25_linear_233_89" x1="755" y1="569.31" x2="755" y2="260" gradientUnits="userSpaceOnUse">
<stop stop-color="#0000FF"/>
<stop offset="0.384517" stop-color="#EEEEEE"/>
<stop offset="0.920401" stop-color="#EEEEEE" stop-opacity="0"/>
</linearGradient>
<linearGradient id="paint26_linear_233_89" x1="755" y1="532.915" x2="755" y2="-6.35284e-05" gradientUnits="userSpaceOnUse">
<stop stop-color="#EEEEEE"/>
<stop offset="0.761536" stop-color="white" stop-opacity="0.04"/>
<stop offset="1" stop-color="white" stop-opacity="0"/>
</linearGradient>
<clipPath id="clip0_233_89">
<rect width="1510" height="3500" fill="white"/>
</clipPath>
</defs>
</svg>
