<svg width="1508" height="5921" viewBox="0 0 1508 5921" fill="none" xmlns="http://www.w3.org/2000/svg">
<rect width="1508" height="5921" fill="#E1D8D8"/>
<g clip-path="url(#clip0_101_42)">
<rect width="1508" height="5921" fill="white"/>
<path d="M-2 0H1510V5921H-2V0Z" fill="url(#paint0_linear_101_42)"/>
<path d="M1510 94.5C788.885 -55.629 822 336.239 -2 19.3748V336.239V554H747.023H1510V94.5Z" fill="url(#paint1_linear_101_42)" style="mix-blend-mode:overlay"/>
<path d="M1510 132.5C811.5 -78.7106 305 247 -2 91V399.788V612H747.023H1510V132.5Z" fill="url(#paint2_linear_101_42)" style="mix-blend-mode:overlay"/>
<path d="M1510 77.7622C601 36.2623 448 345.051 -2 36.2623V345.05V557.262H747.023H1510V77.7622Z" fill="url(#paint3_linear_101_42)" style="mix-blend-mode:overlay"/>
<path d="M1510 894.125C872 649 306 1154.5 -2 835.5V1135.86V1353.62H747.023H1510V894.125Z" fill="url(#paint4_linear_101_42)" style="mix-blend-mode:overlay"/>
<path d="M1510 853C376.5 1069 49 837.5 -2 931.5V1199.41V1411.63H747.023H1510V853Z" fill="url(#paint5_linear_101_42)" style="mix-blend-mode:overlay"/>
<path d="M1510 877.387C914.5 1154.5 311 801.5 -2 866.5V1144.68V1356.89H747.023H1510V877.387Z" fill="url(#paint6_linear_101_42)" style="mix-blend-mode:overlay"/>
<path d="M1510 1686.71C776.5 1723 417.5 1888.5 -2 1688.5V1928.45V2146.21H747.023H1510V1686.71Z" fill="url(#paint7_linear_101_42)" style="mix-blend-mode:overlay"/>
<path d="M1510 1645.58C1193.5 1447.5 399 1928.5 -2 1724.08V1992V2204.21H747.023H1510V1645.58Z" fill="url(#paint8_linear_101_42)" style="mix-blend-mode:overlay"/>
<path d="M1510 1669.97C1045.5 1466 306 1847 -2 1659.08V1937.26V2149.47H747.023H1510V1669.97Z" fill="url(#paint9_linear_101_42)" style="mix-blend-mode:overlay"/>
<path d="M1512 2614.05C1131 2732 602 2510 0 2626.5V2855.79V3073.55H749.023H1512V2614.05Z" fill="url(#paint10_linear_101_42)" style="mix-blend-mode:overlay"/>
<path d="M1512 2572.92C840 2421 507.5 2734 0 2651.42V2919.34V3131.55H749.023H1512V2572.92Z" fill="url(#paint11_linear_101_42)" style="mix-blend-mode:overlay"/>
<path d="M1512 2597.31C775 2532 576.5 2523 0 2692V2864.6V3076.81H749.023H1512V2597.31Z" fill="url(#paint12_linear_101_42)" style="mix-blend-mode:overlay"/>
<path d="M1508 3519.71C870 3274.58 304 3780.08 -4 3461.08V3761.45V3979.21H745.023H1508V3519.71Z" fill="url(#paint13_linear_101_42)" style="mix-blend-mode:overlay"/>
<path d="M1508 3478.58C374.5 3694.58 47 3463.08 -4 3557.08V3825V4037.21H745.023H1508V3478.58Z" fill="url(#paint14_linear_101_42)" style="mix-blend-mode:overlay"/>
<path d="M1508 3502.97C912.5 3780.08 309 3427.08 -4 3492.08V3770.26V3982.47H745.023H1508V3502.97Z" fill="url(#paint15_linear_101_42)" style="mix-blend-mode:overlay"/>
<path d="M1508 4447.29C774.5 4483.58 415.5 4649.08 -4 4449.08V4689.03V4906.79H745.023H1508V4447.29Z" fill="url(#paint16_linear_101_42)" style="mix-blend-mode:overlay"/>
<path d="M1508 4406.17C1191.5 4208.08 397 4689.08 -4 4484.67V4752.58V4964.79H745.023H1508V4406.17Z" fill="url(#paint17_linear_101_42)" style="mix-blend-mode:overlay"/>
<path d="M1508 4430.56C1043.5 4226.58 304 4607.58 -4 4419.67V4697.84V4910.06H745.023H1508V4430.56Z" fill="url(#paint18_linear_101_42)" style="mix-blend-mode:overlay"/>
<path d="M1510 5374.63C1129 5492.58 600 5270.58 -2 5387.08V5616.37V5834.13H747.023H1510V5374.63Z" fill="url(#paint19_linear_101_42)" style="mix-blend-mode:overlay"/>
<path d="M1510 5333.51C838 5181.58 505.5 5494.58 -2 5412.01V5679.92V5892.13H747.023H1510V5333.51Z" fill="url(#paint20_linear_101_42)" style="mix-blend-mode:overlay"/>
<path d="M1510 5357.9C773 5292.58 574.5 5283.58 -2 5452.58V5625.18V5837.4H747.023H1510V5357.9Z" fill="url(#paint21_linear_101_42)" style="mix-blend-mode:overlay"/>
</g>
<defs>
<linearGradient id="paint0_linear_101_42" x1="754" y1="-4341.26" x2="753.996" y2="10262.3" gradientUnits="userSpaceOnUse">
<stop offset="0.21875" stop-color="#0000FF"/>
<stop offset="1" stop-color="#EEEEEE"/>
</linearGradient>
<linearGradient id="paint1_linear_101_42" x1="754" y1="-162.292" x2="754" y2="554" gradientUnits="userSpaceOnUse">
<stop offset="0.276042" stop-color="#EEEEEE"/>
<stop offset="1" stop-color="#3E4DD2" stop-opacity="0"/>
</linearGradient>
<linearGradient id="paint2_linear_101_42" x1="754" y1="-86.0365" x2="754" y2="612" gradientUnits="userSpaceOnUse">
<stop offset="0.359375" stop-color="#EEEEEE"/>
<stop offset="1" stop-color="#3E4DD2" stop-opacity="0"/>
</linearGradient>
<linearGradient id="paint3_linear_101_42" x1="754" y1="-140.774" x2="754" y2="557.262" gradientUnits="userSpaceOnUse">
<stop offset="0.369792" stop-color="#EEEEEE"/>
<stop offset="1" stop-color="#3E4DD2" stop-opacity="0"/>
</linearGradient>
<linearGradient id="paint4_linear_101_42" x1="754" y1="637.333" x2="754" y2="1353.62" gradientUnits="userSpaceOnUse">
<stop offset="0.276042" stop-color="#EEEEEE"/>
<stop offset="1" stop-color="#3E4DD2" stop-opacity="0"/>
</linearGradient>
<linearGradient id="paint5_linear_101_42" x1="754" y1="713.589" x2="754" y2="1411.63" gradientUnits="userSpaceOnUse">
<stop offset="0.359375" stop-color="#EEEEEE"/>
<stop offset="1" stop-color="#3E4DD2" stop-opacity="0"/>
</linearGradient>
<linearGradient id="paint6_linear_101_42" x1="754" y1="658.851" x2="754" y2="1356.89" gradientUnits="userSpaceOnUse">
<stop offset="0.369792" stop-color="#EEEEEE"/>
<stop offset="1" stop-color="#3E4DD2" stop-opacity="0"/>
</linearGradient>
<linearGradient id="paint7_linear_101_42" x1="754" y1="1429.92" x2="754" y2="2146.21" gradientUnits="userSpaceOnUse">
<stop offset="0.276042" stop-color="#EEEEEE"/>
<stop offset="1" stop-color="#3E4DD2" stop-opacity="0"/>
</linearGradient>
<linearGradient id="paint8_linear_101_42" x1="754" y1="1506.17" x2="754" y2="2204.21" gradientUnits="userSpaceOnUse">
<stop offset="0.359375" stop-color="#EEEEEE"/>
<stop offset="1" stop-color="#3E4DD2" stop-opacity="0"/>
</linearGradient>
<linearGradient id="paint9_linear_101_42" x1="754" y1="1451.43" x2="754" y2="2149.47" gradientUnits="userSpaceOnUse">
<stop offset="0.157401" stop-color="#EEEEEE"/>
<stop offset="1" stop-color="#3E4DD2" stop-opacity="0"/>
</linearGradient>
<linearGradient id="paint10_linear_101_42" x1="756" y1="2357.26" x2="756" y2="3073.55" gradientUnits="userSpaceOnUse">
<stop offset="0.0661562" stop-color="#EEEEEE"/>
<stop offset="1" stop-color="#3E4DD2" stop-opacity="0"/>
</linearGradient>
<linearGradient id="paint11_linear_101_42" x1="756" y1="2433.51" x2="756" y2="3131.55" gradientUnits="userSpaceOnUse">
<stop offset="0.172247" stop-color="#EEEEEE"/>
<stop offset="1" stop-color="#3E4DD2" stop-opacity="0"/>
</linearGradient>
<linearGradient id="paint12_linear_101_42" x1="756" y1="2378.78" x2="756" y2="3076.81" gradientUnits="userSpaceOnUse">
<stop offset="0.133442" stop-color="#EEEEEE"/>
<stop offset="1" stop-color="#3E4DD2" stop-opacity="0"/>
</linearGradient>
<linearGradient id="paint13_linear_101_42" x1="752" y1="3262.92" x2="752" y2="3979.21" gradientUnits="userSpaceOnUse">
<stop offset="0.276042" stop-color="#EEEEEE"/>
<stop offset="1" stop-color="#3E4DD2" stop-opacity="0"/>
</linearGradient>
<linearGradient id="paint14_linear_101_42" x1="752" y1="3339.17" x2="752" y2="4037.21" gradientUnits="userSpaceOnUse">
<stop offset="0.359375" stop-color="#EEEEEE"/>
<stop offset="1" stop-color="#3E4DD2" stop-opacity="0"/>
</linearGradient>
<linearGradient id="paint15_linear_101_42" x1="752" y1="3284.43" x2="752" y2="3982.47" gradientUnits="userSpaceOnUse">
<stop offset="0.369792" stop-color="#EEEEEE"/>
<stop offset="1" stop-color="#3E4DD2" stop-opacity="0"/>
</linearGradient>
<linearGradient id="paint16_linear_101_42" x1="752" y1="4190.5" x2="752" y2="4906.79" gradientUnits="userSpaceOnUse">
<stop offset="0.276042" stop-color="#EEEEEE"/>
<stop offset="1" stop-color="#3E4DD2" stop-opacity="0"/>
</linearGradient>
<linearGradient id="paint17_linear_101_42" x1="752" y1="4266.76" x2="752" y2="4964.79" gradientUnits="userSpaceOnUse">
<stop offset="0.359375" stop-color="#EEEEEE"/>
<stop offset="1" stop-color="#3E4DD2" stop-opacity="0"/>
</linearGradient>
<linearGradient id="paint18_linear_101_42" x1="752" y1="4212.02" x2="752" y2="4910.06" gradientUnits="userSpaceOnUse">
<stop offset="0.157401" stop-color="#EEEEEE"/>
<stop offset="1" stop-color="#3E4DD2" stop-opacity="0"/>
</linearGradient>
<linearGradient id="paint19_linear_101_42" x1="754" y1="5117.84" x2="754" y2="5834.13" gradientUnits="userSpaceOnUse">
<stop offset="0.0661562" stop-color="#EEEEEE"/>
<stop offset="1" stop-color="#3E4DD2" stop-opacity="0"/>
</linearGradient>
<linearGradient id="paint20_linear_101_42" x1="754" y1="5194.1" x2="754" y2="5892.13" gradientUnits="userSpaceOnUse">
<stop offset="0.172247" stop-color="#EEEEEE"/>
<stop offset="1" stop-color="#3E4DD2" stop-opacity="0"/>
</linearGradient>
<linearGradient id="paint21_linear_101_42" x1="754" y1="5139.36" x2="754" y2="5837.4" gradientUnits="userSpaceOnUse">
<stop offset="0.133442" stop-color="#EEEEEE"/>
<stop offset="1" stop-color="#3E4DD2" stop-opacity="0"/>
</linearGradient>
<clipPath id="clip0_101_42">
<rect width="1508" height="5921" fill="white"/>
</clipPath>
</defs>
</svg>
