<svg width="1510" height="3282" viewBox="0 0 1510 3282" fill="none" xmlns="http://www.w3.org/2000/svg">
<g clip-path="url(#clip0_233_201)">
<rect width="1510" height="3282" fill="#0000FF"/>
<path d="M-2 0H1510V3500H-2V0Z" fill="#0000FF" style="mix-blend-mode:lighten"/>
<path style="mix-blend-mode:overlay" d="M1510 159C1098 100.89 128.5 68.0919 0 153.714V0H748.032H1510V159Z" fill="url(#paint0_linear_233_201)"/>
<path style="mix-blend-mode:overlay" d="M1510 152.35C762.5 -19.3367 226.5 211.826 0 147.286V0H748.032H1510V152.35Z" fill="url(#paint1_linear_233_201)"/>
<path d="M1510 1446.1C748.032 1446.1 748.032 1446.1 0 1453V0H748.032H1510V1446.1Z" fill="url(#paint2_radial_233_201)" style="mix-blend-mode:overlay"/>
<path d="M1510 1999.09C748.032 1999.09 748.032 1999.09 0 2004V970H748.032H1510V1999.09Z" fill="url(#paint3_radial_233_201)" style="mix-blend-mode:overlay"/>
<path d="M1510 2584.02C748.032 2584.02 748.032 2584.02 0 2588V1750H748.032H1510V2584.02Z" fill="url(#paint4_radial_233_201)" style="mix-blend-mode:overlay"/>
<path d="M1510 3234.02C748.032 3234.02 748.032 3234.02 0 3238V2400H748.032H1510V3234.02Z" fill="url(#paint5_radial_233_201)" style="mix-blend-mode:overlay"/>
<path d="M1510 3882.98C748.032 3882.98 748.032 3882.98 0 3887V3040H748.032H1510V3882.98Z" fill="url(#paint6_radial_233_201)" style="mix-blend-mode:overlay"/>
<path style="mix-blend-mode:overlay" d="M1510 2075C1039 1870 654.5 1844.5 0 2029V1870H748.032H1510V2075Z" fill="url(#paint7_linear_233_201)"/>
<path style="mix-blend-mode:overlay" d="M1510 2056C1194.5 1879.58 731.5 1857.07 0 2046.16V1760H748.032H1510V2056Z" fill="url(#paint8_linear_233_201)"/>
<path style="mix-blend-mode:overlay" d="M1510 1616C1095.5 1820 424.5 1902.64 0 1616V1852H748.032H1510V1616Z" fill="url(#paint9_linear_233_201)"/>
<path style="mix-blend-mode:overlay" d="M1510 1582C731 1883 306 1888.5 0 1597.76V2056H748.032H1510V1582Z" fill="url(#paint10_linear_233_201)"/>
<path style="mix-blend-mode:overlay" d="M1510 2715C1039 2510 654.5 2484.5 0 2669V2510H748.032H1510V2715Z" fill="url(#paint11_linear_233_201)"/>
<path style="mix-blend-mode:overlay" d="M1510 2696C1194.5 2519.58 731.5 2497.07 0 2686.16V2400H748.032H1510V2696Z" fill="url(#paint12_linear_233_201)"/>
<path style="mix-blend-mode:overlay" d="M1510 2256C1095.5 2460 424.5 2542.64 0 2256V2492H748.032H1510V2256Z" fill="url(#paint13_linear_233_201)"/>
<path style="mix-blend-mode:overlay" d="M1510 2299C731 2484 343 2464 0 2321.5V2696H748.032H1510V2299Z" fill="url(#paint14_linear_233_201)"/>
<path style="mix-blend-mode:overlay" d="M1510 3355C1039 3150 654.5 3124.5 0 3309V3150H748.032H1510V3355Z" fill="url(#paint15_linear_233_201)"/>
<path style="mix-blend-mode:overlay" d="M1510 3336C1194.5 3159.58 731.5 3137.07 0 3326.16V3040H748.032H1510V3336Z" fill="url(#paint16_linear_233_201)"/>
<path style="mix-blend-mode:overlay" d="M0 2953.44C91.1551 3055 189.123 3120.9 292.46 3159.24H748.032H844.56C1059.36 3102.55 1284.14 2998.22 1510 2896V3159.24H844.56C650.148 3210.56 463.915 3222.85 292.46 3159.24H0V2953.44Z" fill="url(#paint17_linear_233_201)"/>
<path style="mix-blend-mode:overlay" d="M1510 2939C1341 3104 579 3220 0 3043.5V3336H748.032H1510V2939Z" fill="url(#paint18_linear_233_201)"/>
<path style="mix-blend-mode:overlay" d="M1510 1259C1039 1054 654.5 1028.5 0 1213V1054H748.032H1510V1259Z" fill="url(#paint19_linear_233_201)"/>
<path style="mix-blend-mode:overlay" d="M1510 1240C1194.5 1063.58 731.5 1041.07 0 1230.16V944H748.032H1510V1240Z" fill="url(#paint20_linear_233_201)"/>
<path style="mix-blend-mode:overlay" d="M1510 800C1254.5 1004 424.5 1047.77 0 800V1004H748.032H1510V800Z" fill="url(#paint21_linear_233_201)"/>
<path style="mix-blend-mode:overlay" d="M1510 766C1194.5 1048.5 731.5 1084.55 0 781.757V1240H748.032H1510V766Z" fill="url(#paint22_linear_233_201)"/>
<path style="mix-blend-mode:overlay" d="M1510 247C1150.5 45.5 426 35.5 0 247V0H748.032H1510V247Z" fill="url(#paint23_linear_233_201)"/>
<g style="mix-blend-mode:soft-light">
<path d="M1510 218C1194.5 88.072 731.5 71.4937 0 210.753V0H748.032H1510V218Z" fill="url(#paint24_linear_233_201)" style="mix-blend-mode:overlay"/>
</g>
<path style="mix-blend-mode:overlay" d="M1510 107.469C1457 0 716 214.939 0 91.4043V0H748.032H1510V107.469Z" fill="url(#paint25_linear_233_201)"/>
</g>
<defs>
<linearGradient id="paint0_linear_233_201" x1="755" y1="159" x2="755" y2="-4.73856e-05" gradientUnits="userSpaceOnUse">
<stop offset="0.150908" stop-color="#EEEEEE"/>
<stop offset="0.431637" stop-color="#0000FF"/>
</linearGradient>
<linearGradient id="paint1_linear_233_201" x1="755" y1="159" x2="755" y2="1.89543e-05" gradientUnits="userSpaceOnUse">
<stop stop-color="#0000FF" stop-opacity="0.52"/>
<stop offset="1" stop-color="#0000FF"/>
</linearGradient>
<radialGradient id="paint2_radial_233_201" cx="0" cy="0" r="1" gradientUnits="userSpaceOnUse" gradientTransform="translate(775 557.424) rotate(-89.8557) scale(595.468 1433.11)">
<stop stop-color="#0000FF"/>
<stop offset="0.552808" stop-color="#0000FF"/>
<stop offset="1" stop-color="#EEEEEE" stop-opacity="0"/>
</radialGradient>
<radialGradient id="paint3_radial_233_201" cx="0" cy="0" r="1" gradientUnits="userSpaceOnUse" gradientTransform="translate(755 1487) rotate(-90) scale(517 1748.46)">
<stop stop-color="#0000FF"/>
<stop offset="0.456548" stop-color="#0000FF"/>
<stop offset="0.944907" stop-color="#EEEEEE" stop-opacity="0"/>
</radialGradient>
<radialGradient id="paint4_radial_233_201" cx="0" cy="0" r="1" gradientUnits="userSpaceOnUse" gradientTransform="translate(755 2169) rotate(-90) scale(419 1748.46)">
<stop stop-color="#0000FF"/>
<stop offset="0.456548" stop-color="#0000FF"/>
<stop offset="0.944907" stop-color="#EEEEEE" stop-opacity="0"/>
</radialGradient>
<radialGradient id="paint5_radial_233_201" cx="0" cy="0" r="1" gradientUnits="userSpaceOnUse" gradientTransform="translate(771.5 2844.5) rotate(-92.1259) scale(444.806 1856.15)">
<stop offset="0.0239339" stop-color="#0000FF"/>
<stop offset="0.497416" stop-color="#0000FF"/>
<stop offset="0.944907" stop-color="#EEEEEE" stop-opacity="0"/>
</radialGradient>
<radialGradient id="paint6_radial_233_201" cx="0" cy="0" r="1" gradientUnits="userSpaceOnUse" gradientTransform="translate(755 3464) rotate(-90) scale(424 1750.58)">
<stop offset="0.0239339" stop-color="#0000FF"/>
<stop offset="0.464268" stop-color="#0000FF"/>
<stop offset="0.731026" stop-color="#EEEEEE" stop-opacity="0"/>
</radialGradient>
<linearGradient id="paint7_linear_233_201" x1="755" y1="2122.21" x2="755" y2="1870" gradientUnits="userSpaceOnUse">
<stop stop-color="#0000FF"/>
<stop offset="0.384517" stop-color="#EEEEEE"/>
<stop offset="0.920401" stop-color="#EEEEEE" stop-opacity="0"/>
</linearGradient>
<linearGradient id="paint8_linear_233_201" x1="755" y1="2082.58" x2="755" y2="1760" gradientUnits="userSpaceOnUse">
<stop stop-color="#EEEEEE"/>
<stop offset="0.761536" stop-color="white" stop-opacity="0.04"/>
<stop offset="1" stop-color="white" stop-opacity="0"/>
</linearGradient>
<linearGradient id="paint9_linear_233_201" x1="755" y1="1477.66" x2="755" y2="1852" gradientUnits="userSpaceOnUse">
<stop stop-color="#0000FF"/>
<stop offset="0.384517" stop-color="#EEEEEE"/>
<stop offset="0.920401" stop-color="#EEEEEE" stop-opacity="0"/>
</linearGradient>
<linearGradient id="paint10_linear_233_201" x1="755" y1="1539.43" x2="755" y2="2056" gradientUnits="userSpaceOnUse">
<stop stop-color="#EEEEEE"/>
<stop offset="0.761536" stop-color="white" stop-opacity="0.04"/>
<stop offset="1" stop-color="white" stop-opacity="0"/>
</linearGradient>
<linearGradient id="paint11_linear_233_201" x1="755" y1="2762.21" x2="755" y2="2510" gradientUnits="userSpaceOnUse">
<stop stop-color="#0000FF"/>
<stop offset="0.384517" stop-color="#EEEEEE"/>
<stop offset="0.920401" stop-color="#EEEEEE" stop-opacity="0"/>
</linearGradient>
<linearGradient id="paint12_linear_233_201" x1="755" y1="2722.58" x2="755" y2="2400" gradientUnits="userSpaceOnUse">
<stop stop-color="#EEEEEE"/>
<stop offset="0.761536" stop-color="white" stop-opacity="0.04"/>
<stop offset="1" stop-color="white" stop-opacity="0"/>
</linearGradient>
<linearGradient id="paint13_linear_233_201" x1="755" y1="2117.66" x2="755" y2="2492" gradientUnits="userSpaceOnUse">
<stop stop-color="#0000FF"/>
<stop offset="0.384517" stop-color="#EEEEEE"/>
<stop offset="0.920401" stop-color="#EEEEEE" stop-opacity="0"/>
</linearGradient>
<linearGradient id="paint14_linear_233_201" x1="755" y1="2179.43" x2="755" y2="2696" gradientUnits="userSpaceOnUse">
<stop stop-color="#EEEEEE"/>
<stop offset="0.761536" stop-color="white" stop-opacity="0.04"/>
<stop offset="1" stop-color="white" stop-opacity="0"/>
</linearGradient>
<linearGradient id="paint15_linear_233_201" x1="755" y1="3402.21" x2="755" y2="3150" gradientUnits="userSpaceOnUse">
<stop stop-color="#0000FF"/>
<stop offset="0.384517" stop-color="#EEEEEE"/>
<stop offset="0.920401" stop-color="#EEEEEE" stop-opacity="0"/>
</linearGradient>
<linearGradient id="paint16_linear_233_201" x1="755" y1="3362.58" x2="755" y2="3040" gradientUnits="userSpaceOnUse">
<stop stop-color="#EEEEEE"/>
<stop offset="0.761536" stop-color="white" stop-opacity="0.04"/>
<stop offset="1" stop-color="white" stop-opacity="0"/>
</linearGradient>
<linearGradient id="paint17_linear_233_201" x1="755" y1="2741.69" x2="755" y2="3159.24" gradientUnits="userSpaceOnUse">
<stop stop-color="#0000FF"/>
<stop offset="0.384517" stop-color="#EEEEEE"/>
<stop offset="0.920401" stop-color="#EEEEEE" stop-opacity="0"/>
</linearGradient>
<linearGradient id="paint18_linear_233_201" x1="755" y1="2819.43" x2="755" y2="3336" gradientUnits="userSpaceOnUse">
<stop stop-color="#EEEEEE"/>
<stop offset="0.761536" stop-color="white" stop-opacity="0.04"/>
<stop offset="1" stop-color="white" stop-opacity="0"/>
</linearGradient>
<linearGradient id="paint19_linear_233_201" x1="755" y1="1306.21" x2="755" y2="1054" gradientUnits="userSpaceOnUse">
<stop stop-color="#0000FF"/>
<stop offset="0.384517" stop-color="#EEEEEE"/>
<stop offset="0.920401" stop-color="#EEEEEE" stop-opacity="0"/>
</linearGradient>
<linearGradient id="paint20_linear_233_201" x1="755" y1="1266.58" x2="755" y2="944" gradientUnits="userSpaceOnUse">
<stop stop-color="#EEEEEE"/>
<stop offset="0.761536" stop-color="white" stop-opacity="0.04"/>
<stop offset="1" stop-color="white" stop-opacity="0"/>
</linearGradient>
<linearGradient id="paint21_linear_233_201" x1="755" y1="680.414" x2="755" y2="1004" gradientUnits="userSpaceOnUse">
<stop stop-color="#0000FF"/>
<stop offset="0.384517" stop-color="#EEEEEE"/>
<stop offset="0.920401" stop-color="#EEEEEE" stop-opacity="0"/>
</linearGradient>
<linearGradient id="paint22_linear_233_201" x1="755" y1="723.432" x2="755" y2="1240" gradientUnits="userSpaceOnUse">
<stop stop-color="#EEEEEE"/>
<stop offset="0.761536" stop-color="white" stop-opacity="0.04"/>
<stop offset="1" stop-color="white" stop-opacity="0"/>
</linearGradient>
<linearGradient id="paint23_linear_233_201" x1="755" y1="391.793" x2="755" y2="-4.7269e-05" gradientUnits="userSpaceOnUse">
<stop stop-color="#0000FF"/>
<stop offset="0.384517" stop-color="#EEEEEE"/>
<stop offset="0.920401" stop-color="#EEEEEE" stop-opacity="0"/>
</linearGradient>
<linearGradient id="paint24_linear_233_201" x1="755" y1="237.578" x2="755" y2="-2.83215e-05" gradientUnits="userSpaceOnUse">
<stop offset="0.525681" stop-color="#EEEEEE"/>
<stop offset="1" stop-color="white" stop-opacity="0"/>
<stop offset="1" stop-color="white" stop-opacity="0.04"/>
</linearGradient>
<linearGradient id="paint25_linear_233_201" x1="755" y1="163.697" x2="755" y2="0.000141478" gradientUnits="userSpaceOnUse">
<stop offset="0.0520833" stop-color="#0000FF"/>
<stop offset="0.927083" stop-color="#0000FF" stop-opacity="0.29"/>
</linearGradient>
<clipPath id="clip0_233_201">
<rect width="1510" height="3282" fill="white"/>
</clipPath>
</defs>
</svg>
