<svg width="302" height="303" xmlns="http://www.w3.org/2000/svg" xmlns:xlink="http://www.w3.org/1999/xlink" overflow="hidden"><defs><clipPath id="clip0"><rect x="825" y="508" width="302" height="303"/></clipPath><clipPath id="clip1"><rect x="827" y="511" width="297" height="297"/></clipPath><clipPath id="clip2"><rect x="827" y="511" width="297" height="297"/></clipPath><clipPath id="clip3"><rect x="827" y="511" width="297" height="297"/></clipPath><clipPath id="clip4"><rect x="827" y="511" width="297" height="297"/></clipPath><clipPath id="clip5"><rect x="827" y="511" width="297" height="297"/></clipPath><clipPath id="clip6"><rect x="827" y="511" width="297" height="297"/></clipPath></defs><g clip-path="url(#clip0)" transform="translate(-825 -508)"><g clip-path="url(#clip1)"><path d="M975.996 561.661C1030.09 561.661 1073.95 605.516 1073.95 659.614 1073.95 679.843 1067.69 699.576 1056.02 716.102L1008.01 682.209C1020.48 664.531 1016.27 640.083 998.591 627.604 991.98 622.938 984.087 620.433 975.996 620.433Z" fill="#315493" fill-rule="evenodd" fill-opacity="1"/></g><g clip-path="url(#clip2)"><path d="M1056.02 716.102C1024.82 760.298 963.705 770.836 919.508 739.639 917.686 738.353 915.909 737.005 914.179 735.597L951.269 690.008C968.055 703.664 992.733 701.127 1006.39 684.341 1006.95 683.649 1007.49 682.938 1008.01 682.209Z" fill="#3960A7" fill-rule="evenodd" fill-opacity="1"/></g><g clip-path="url(#clip3)"><path d="M914.179 735.597C878.173 706.304 867.67 655.762 889.025 614.549L941.208 641.588C932.666 658.073 936.867 678.29 951.269 690.007Z" fill="#3B64AD" fill-rule="evenodd" fill-opacity="1"/></g><g clip-path="url(#clip4)"><path d="M889.025 614.549C897.284 598.611 909.763 585.248 925.101 575.921L955.638 626.137C949.503 629.868 944.511 635.213 941.207 641.588Z" fill="#4472C4" fill-rule="evenodd" fill-opacity="1"/></g><g clip-path="url(#clip5)"><path d="M925.101 575.921C932.734 571.279 940.966 567.704 949.568 565.293L965.425 621.886C961.984 622.85 958.691 624.28 955.638 626.137Z" fill="#8FA2D4" fill-rule="evenodd" fill-opacity="1"/></g><g clip-path="url(#clip6)"><path d="M949.569 565.293C958.171 562.883 967.062 561.661 975.996 561.661L975.996 620.433C972.423 620.433 968.866 620.922 965.425 621.886Z" fill="#BAC4E2" fill-rule="evenodd" fill-opacity="1"/></g></g></svg>