<svg width="302" height="298" xmlns="http://www.w3.org/2000/svg" xmlns:xlink="http://www.w3.org/1999/xlink" overflow="hidden"><defs><clipPath id="clip0"><rect x="825" y="1333" width="302" height="298"/></clipPath><clipPath id="clip1"><rect x="827" y="1334" width="297" height="297"/></clipPath><clipPath id="clip2"><rect x="827" y="1334" width="297" height="297"/></clipPath><clipPath id="clip3"><rect x="827" y="1334" width="297" height="297"/></clipPath><clipPath id="clip4"><rect x="827" y="1334" width="297" height="297"/></clipPath><clipPath id="clip5"><rect x="827" y="1334" width="297" height="297"/></clipPath><clipPath id="clip6"><rect x="827" y="1334" width="297" height="297"/></clipPath></defs><g clip-path="url(#clip0)" transform="translate(-825 -1333)"><g clip-path="url(#clip1)"><path d="M975.996 1384.91C1030.09 1384.91 1073.95 1428.76 1073.95 1482.86 1073.95 1503.09 1067.69 1522.82 1056.02 1539.35L1008.01 1505.46C1020.48 1487.78 1016.27 1463.33 998.591 1450.85 991.98 1446.18 984.087 1443.68 975.996 1443.68Z" fill="#C0C9E4" fill-rule="evenodd" fill-opacity="1"/></g><g clip-path="url(#clip2)"><path d="M1056.02 1539.35C1024.82 1583.54 963.705 1594.08 919.508 1562.89 917.686 1561.6 915.909 1560.25 914.179 1558.84L951.269 1513.25C968.055 1526.91 992.733 1524.37 1006.39 1507.59 1006.95 1506.9 1007.49 1506.18 1008.01 1505.46Z" fill="#9EADD8" fill-rule="evenodd" fill-opacity="1"/></g><g clip-path="url(#clip3)"><path d="M914.179 1558.84C878.173 1529.55 867.67 1479.01 889.025 1437.8L941.208 1464.83C932.666 1481.32 936.867 1501.54 951.269 1513.25Z" fill="#6D89CB" fill-rule="evenodd" fill-opacity="1"/></g><g clip-path="url(#clip4)"><path d="M889.025 1437.8C897.284 1421.86 909.763 1408.49 925.101 1399.17L955.638 1449.38C949.503 1453.11 944.511 1458.46 941.207 1464.83Z" fill="#406DBB" fill-rule="evenodd" fill-opacity="1"/></g><g clip-path="url(#clip5)"><path d="M925.101 1399.17C932.734 1394.53 940.966 1390.95 949.568 1388.54L965.425 1445.13C961.984 1446.1 958.691 1447.53 955.638 1449.38Z" fill="#3960A7" fill-rule="evenodd" fill-opacity="1"/></g><g clip-path="url(#clip6)"><path d="M949.569 1388.54C958.171 1386.13 967.062 1384.91 975.996 1384.91L975.996 1443.68C972.423 1443.68 968.866 1444.17 965.425 1445.13Z" fill="#2F528F" fill-rule="evenodd" fill-opacity="1"/></g></g></svg>