<svg width="1512" height="982" viewBox="0 0 1512 982" fill="none" xmlns="http://www.w3.org/2000/svg">
<g clip-path="url(#clip0_101_45)">
<rect width="1512" height="982" fill="white"/>
<rect width="1512" height="982" fill="url(#paint0_linear_101_45)"/>
<path d="M1514 652.715C959 419.699 637 882.461 -3 551.003V991.003H1514V652.715Z" fill="url(#paint1_linear_101_45)" style="mix-blend-mode:overlay"/>
<path d="M1512 762.167C824.5 849.5 691.5 707.912 -5 707.912V1022H746.5H1512V762.167Z" fill="url(#paint2_linear_101_45)" style="mix-blend-mode:overlay"/>
<path d="M1514 880.235C580.05 786.873 922.079 931.2 -4 880.235L-3.99997 1282H747.995H1514V880.235Z" fill="url(#paint3_linear_101_45)" style="mix-blend-mode:overlay"/>
</g>
<defs>
<linearGradient id="paint0_linear_101_45" x1="756" y1="-720" x2="756" y2="1702" gradientUnits="userSpaceOnUse">
<stop offset="0.151042" stop-color="#8F94FF"/>
<stop offset="0.890625" stop-color="#200049"/>
</linearGradient>
<linearGradient id="paint1_linear_101_45" x1="755.5" y1="480.972" x2="755.5" y2="991.003" gradientUnits="userSpaceOnUse">
<stop/>
<stop offset="1" stop-opacity="0"/>
</linearGradient>
<linearGradient id="paint2_linear_101_45" x1="753.5" y1="670.555" x2="753.5" y2="942.62" gradientUnits="userSpaceOnUse">
<stop stop-color="white" stop-opacity="0.57"/>
<stop offset="1" stop-color="white" stop-opacity="0.26"/>
</linearGradient>
<linearGradient id="paint3_linear_101_45" x1="755" y1="771.478" x2="755" y2="1166.69" gradientUnits="userSpaceOnUse">
<stop stop-opacity="0"/>
<stop offset="1" stop-opacity="0.4"/>
</linearGradient>
<clipPath id="clip0_101_45">
<rect width="1512" height="982" fill="white"/>
</clipPath>
</defs>
</svg>
