<svg width="1280" height="720" xmlns="http://www.w3.org/2000/svg" xmlns:xlink="http://www.w3.org/1999/xlink" overflow="hidden"><defs><clipPath id="clip0"><rect x="0" y="0" width="1280" height="720"/></clipPath><clipPath id="clip1"><rect x="208" y="220" width="428" height="284"/></clipPath><clipPath id="clip2"><rect x="208" y="220" width="428" height="284"/></clipPath><clipPath id="clip3"><rect x="208" y="220" width="428" height="284"/></clipPath><clipPath id="clip4"><rect x="208" y="220" width="428" height="284"/></clipPath><clipPath id="clip5"><rect x="208" y="220" width="428" height="284"/></clipPath><clipPath id="clip6"><rect x="869" y="217" width="427" height="285"/></clipPath><clipPath id="clip7"><rect x="869" y="217" width="427" height="285"/></clipPath><clipPath id="clip8"><rect x="869" y="217" width="427" height="285"/></clipPath><clipPath id="clip9"><rect x="869" y="217" width="427" height="285"/></clipPath><clipPath id="clip10"><rect x="869" y="217" width="427" height="285"/></clipPath></defs><g clip-path="url(#clip0)"><rect x="0" y="0" width="1280" height="720" fill="#FFFFFF" fill-opacity="0"/><text fill="#31356E" font-family="Times New Roman,Times New Roman_MSFontService,sans-serif" font-weight="400" font-size="383" transform="translate(54.493 488)">F</text><g clip-path="url(#clip1)"><path d="M315.026 300.599C323.524 285.88 334.957 273.066 348.615 262.952L381.82 307.79C374.308 313.353 368.02 320.401 363.346 328.496Z" stroke="#FFFFFF" stroke-width="3" stroke-linejoin="round" stroke-miterlimit="10" fill="#31356E" fill-rule="evenodd"/></g><g clip-path="url(#clip2)"><path d="M348.615 262.952C376.223 242.507 411.075 234.433 444.861 240.655L434.755 295.527C416.173 292.105 397.004 296.546 381.82 307.791Z" stroke="#FFFFFF" stroke-width="3" stroke-linejoin="round" stroke-miterlimit="10" fill="#2F5F98" fill-rule="evenodd"/></g><g clip-path="url(#clip3)"><path d="M444.861 240.654C496.463 250.158 536.497 291.113 544.823 342.918L489.734 351.772C485.155 323.279 463.137 300.754 434.755 295.527Z" stroke="#FFFFFF" stroke-width="3" stroke-linejoin="round" stroke-miterlimit="10" fill="#2D8BBA" fill-rule="evenodd"/></g><g clip-path="url(#clip4)"><path d="M544.823 342.918C554.146 400.928 521.474 457.517 466.574 478.448L446.698 426.314C476.893 414.802 494.862 383.678 489.735 351.772Z" stroke="#FFFFFF" stroke-width="3" stroke-linejoin="round" stroke-miterlimit="10" fill="#41B8D5" fill-rule="evenodd"/></g><g clip-path="url(#clip5)"><path d="M466.575 478.448C402.59 502.843 330.944 470.749 306.549 406.764 293.258 371.902 296.372 332.909 315.026 300.599L363.346 328.496C344.515 361.113 355.69 402.82 388.307 421.651 406.078 431.911 427.524 433.624 446.698 426.314Z" stroke="#FFFFFF" stroke-width="3" stroke-linejoin="round" stroke-miterlimit="10" fill="#6CE5E8" fill-rule="evenodd"/></g><text fill="#31356E" font-family="Times New Roman,Times New Roman_MSFontService,sans-serif" font-weight="400" font-size="383" transform="translate(569.937 488)">LI</text><g clip-path="url(#clip6)"><path d="M972.536 296.145C981.289 280.985 993.065 267.787 1007.13 257.369L1041.33 303.553C1033.6 309.283 1027.12 316.542 1022.31 324.88Z" stroke="#FFFFFF" stroke-width="3" stroke-linejoin="round" stroke-miterlimit="10" fill="#31356E" fill-rule="evenodd"/></g><g clip-path="url(#clip7)"><path d="M1007.13 257.369C1035.57 236.311 1071.47 227.994 1106.27 234.403L1095.86 290.922C1076.72 287.397 1056.97 291.971 1041.33 303.553Z" stroke="#FFFFFF" stroke-width="3" stroke-linejoin="round" stroke-miterlimit="10" fill="#2F5F98" fill-rule="evenodd"/></g><g clip-path="url(#clip8)"><path d="M1106.27 234.403C1159.42 244.191 1200.65 286.375 1209.23 339.735L1152.49 348.854C1147.77 319.507 1125.09 296.305 1095.86 290.922Z" stroke="#FFFFFF" stroke-width="3" stroke-linejoin="round" stroke-miterlimit="10" fill="#2D8BBA" fill-rule="evenodd"/></g><g clip-path="url(#clip9)"><path d="M1209.23 339.735C1218.83 399.485 1185.18 457.772 1128.63 479.33L1108.16 425.632C1139.26 413.775 1157.77 381.717 1152.49 348.854Z" stroke="#FFFFFF" stroke-width="3" stroke-linejoin="round" stroke-miterlimit="10" fill="#41B8D5" fill-rule="evenodd"/></g><g clip-path="url(#clip10)"><path d="M1128.63 479.331C1062.73 504.457 988.932 471.4 963.805 405.495 950.116 369.588 953.322 329.425 972.537 296.145L1022.31 324.88C1002.91 358.475 1014.42 401.433 1048.02 420.83 1066.32 431.397 1088.41 433.161 1108.16 425.632Z" stroke="#FFFFFF" stroke-width="3" stroke-linejoin="round" stroke-miterlimit="10" fill="#6CE5E8" fill-rule="evenodd"/></g></g></svg>