<svg width="1280" height="720" xmlns="http://www.w3.org/2000/svg" xmlns:xlink="http://www.w3.org/1999/xlink" overflow="hidden"><defs><clipPath id="clip0"><rect x="0" y="0" width="1280" height="720"/></clipPath><clipPath id="clip1"><rect x="203" y="225" width="440" height="293"/></clipPath><clipPath id="clip2"><rect x="203" y="225" width="440" height="293"/></clipPath><clipPath id="clip3"><rect x="203" y="225" width="440" height="293"/></clipPath><clipPath id="clip4"><rect x="203" y="225" width="440" height="293"/></clipPath><clipPath id="clip5"><rect x="203" y="225" width="440" height="293"/></clipPath><clipPath id="clip6"><rect x="867" y="224" width="439" height="292"/></clipPath><clipPath id="clip7"><rect x="867" y="224" width="439" height="292"/></clipPath><clipPath id="clip8"><rect x="867" y="224" width="439" height="292"/></clipPath><clipPath id="clip9"><rect x="867" y="224" width="439" height="292"/></clipPath><clipPath id="clip10"><rect x="867" y="224" width="439" height="292"/></clipPath></defs><g clip-path="url(#clip0)"><rect x="0" y="0" width="1280" height="720" fill="#FFFFFF" fill-opacity="0"/><text fill="#FFFFFF" font-family="Times New Roman,Times New Roman_MSFontService,sans-serif" font-weight="400" font-size="383" transform="translate(51.8381 498)">F</text><g clip-path="url(#clip1)"><path d="M309.65 306.072C318.666 290.456 330.796 276.86 345.287 266.129L380.518 313.702C372.548 319.604 365.876 327.082 360.917 335.671Z" stroke="#0000FF" stroke-width="8" stroke-linejoin="round" stroke-miterlimit="10" stroke-opacity="0" fill="#FFFFFF" fill-rule="evenodd"/></g><g clip-path="url(#clip2)"><path d="M345.287 266.129C374.579 244.437 411.557 235.87 447.404 242.472L436.682 300.691C416.966 297.06 396.628 301.772 380.518 313.702Z" stroke="#0000FF" stroke-width="8" stroke-linejoin="round" stroke-miterlimit="10" stroke-opacity="0" fill="#FFFFFF" fill-rule="evenodd"/></g><g clip-path="url(#clip3)"><path d="M447.404 242.471C502.153 252.554 544.629 296.008 553.462 350.973L495.014 360.367C490.156 330.136 466.794 306.236 436.682 300.691Z" stroke="#0000FF" stroke-width="8" stroke-linejoin="round" stroke-miterlimit="10" stroke-opacity="0" fill="#FFFFFF" fill-rule="evenodd"/></g><g clip-path="url(#clip4)"><path d="M553.463 350.973C563.354 412.521 528.69 472.562 470.442 494.769L449.353 439.455C481.389 427.24 500.455 394.218 495.014 360.367Z" stroke="#0000FF" stroke-width="8" stroke-linejoin="round" stroke-miterlimit="10" stroke-opacity="0" fill="#FFFFFF" fill-rule="evenodd"/></g><g clip-path="url(#clip5)"><path d="M470.442 494.769C402.554 520.652 326.539 486.6 300.656 418.712 286.555 381.724 289.858 340.353 309.65 306.072L360.917 335.671C340.937 370.277 352.794 414.528 387.401 434.508 406.255 445.394 429.01 447.21 449.353 439.454Z" stroke="#0000FF" stroke-width="8" stroke-linejoin="round" stroke-miterlimit="10" stroke-opacity="0" fill="#FFFFFF" fill-rule="evenodd"/></g><text fill="#FFFFFF" font-family="Times New Roman,Times New Roman_MSFontService,sans-serif" font-weight="400" font-size="383" transform="translate(567.282 498)">LI</text><g clip-path="url(#clip6)"><path d="M973.006 304.891C982.022 289.275 994.152 275.679 1008.64 264.947L1043.87 312.521C1035.9 318.423 1029.23 325.901 1024.27 334.49Z" stroke="#0000FF" stroke-width="8" stroke-linejoin="round" stroke-miterlimit="10" stroke-opacity="0" fill="#FFFFFF" fill-rule="evenodd"/></g><g clip-path="url(#clip7)"><path d="M1008.64 264.947C1037.93 243.256 1074.91 234.689 1110.76 241.29L1100.04 299.51C1080.32 295.879 1059.98 300.591 1043.87 312.521Z" stroke="#0000FF" stroke-width="8" stroke-linejoin="round" stroke-miterlimit="10" stroke-opacity="0" fill="#FFFFFF" fill-rule="evenodd"/></g><g clip-path="url(#clip8)"><path d="M1110.76 241.29C1165.51 251.373 1207.98 294.827 1216.82 349.792L1158.37 359.186C1153.51 328.955 1130.15 305.055 1100.04 299.51Z" stroke="#0000FF" stroke-width="8" stroke-linejoin="round" stroke-miterlimit="10" stroke-opacity="0" fill="#FFFFFF" fill-rule="evenodd"/></g><g clip-path="url(#clip9)"><path d="M1216.82 349.792C1226.71 411.34 1192.05 471.38 1133.8 493.588L1112.71 438.273C1144.75 426.059 1163.81 393.037 1158.37 359.185Z" stroke="#0000FF" stroke-width="8" stroke-linejoin="round" stroke-miterlimit="10" stroke-opacity="0" fill="#FFFFFF" fill-rule="evenodd"/></g><g clip-path="url(#clip10)"><path d="M1133.8 493.588C1065.91 519.47 989.895 485.419 964.012 417.531 949.91 380.543 953.214 339.172 973.006 304.891L1024.27 334.49C1004.29 369.096 1016.15 413.347 1050.76 433.327 1069.61 444.212 1092.37 446.029 1112.71 438.273Z" stroke="#0000FF" stroke-width="8" stroke-linejoin="round" stroke-miterlimit="10" stroke-opacity="0" fill="#FFFFFF" fill-rule="evenodd"/></g></g></svg>