<svg width="1280" height="720" xmlns="http://www.w3.org/2000/svg" xmlns:xlink="http://www.w3.org/1999/xlink" overflow="hidden"><defs><clipPath id="clip0"><rect x="0" y="0" width="1280" height="720"/></clipPath><clipPath id="clip1"><rect x="152" y="-6" width="428" height="284"/></clipPath><clipPath id="clip2"><rect x="152" y="-6" width="428" height="284"/></clipPath><clipPath id="clip3"><rect x="152" y="-6" width="428" height="284"/></clipPath><clipPath id="clip4"><rect x="152" y="-6" width="428" height="284"/></clipPath><clipPath id="clip5"><rect x="152" y="-6" width="428" height="284"/></clipPath><clipPath id="clip6"><rect x="813" y="-9" width="428" height="284"/></clipPath><clipPath id="clip7"><rect x="813" y="-9" width="428" height="284"/></clipPath><clipPath id="clip8"><rect x="813" y="-9" width="428" height="284"/></clipPath><clipPath id="clip9"><rect x="813" y="-9" width="428" height="284"/></clipPath><clipPath id="clip10"><rect x="813" y="-9" width="428" height="284"/></clipPath></defs><g clip-path="url(#clip0)"><rect x="0" y="0" width="1280" height="720" fill="#FFFFFF" fill-opacity="0"/><text fill="#FFFFFF" font-family="Times New Roman,Times New Roman_MSFontService,sans-serif" font-weight="400" font-size="383" transform="translate(-1.18898 261)">F</text><g clip-path="url(#clip1)"><path d="M259.344 73.8067C267.842 59.0883 279.275 46.274 292.933 36.1596L326.138 80.9984C318.626 86.5613 312.338 93.6092 307.664 101.704Z" stroke="#FFFFFF" stroke-width="3" stroke-linejoin="round" stroke-miterlimit="10" fill="#31356E" fill-rule="evenodd"/></g><g clip-path="url(#clip2)"><path d="M292.933 36.1597C320.541 15.7148 355.393 7.64056 389.179 13.8626L379.073 68.7351C360.491 65.313 341.322 69.7538 326.138 80.9985Z" stroke="#FFFFFF" stroke-width="3" stroke-linejoin="round" stroke-miterlimit="10" fill="#2F5F98" fill-rule="evenodd"/></g><g clip-path="url(#clip3)"><path d="M389.179 13.8625C440.781 23.3656 480.815 64.3212 489.141 116.126L434.052 124.98C429.473 96.4874 407.455 73.9618 379.073 68.7351Z" stroke="#FFFFFF" stroke-width="3" stroke-linejoin="round" stroke-miterlimit="10" fill="#2D8BBA" fill-rule="evenodd"/></g><g clip-path="url(#clip4)"><path d="M489.141 116.126C498.464 174.136 465.792 230.725 410.892 251.656L391.016 199.522C421.211 188.01 439.18 156.886 434.053 124.98Z" stroke="#FFFFFF" stroke-width="3" stroke-linejoin="round" stroke-miterlimit="10" fill="#41B8D5" fill-rule="evenodd"/></g><g clip-path="url(#clip5)"><path d="M410.893 251.656C346.908 276.051 275.262 243.956 250.867 179.972 237.576 145.11 240.69 106.117 259.344 73.8067L307.664 101.704C288.833 134.321 300.008 176.028 332.625 194.859 350.396 205.119 371.842 206.832 391.016 199.522Z" stroke="#FFFFFF" stroke-width="3" stroke-linejoin="round" stroke-miterlimit="10" fill="#6CE5E8" fill-rule="evenodd"/></g><text fill="#FFFFFF" font-family="Times New Roman,Times New Roman_MSFontService,sans-serif" font-weight="400" font-size="383" transform="translate(514.255 261)">LI</text><g clip-path="url(#clip6)"><path d="M916.854 69.3533C925.607 54.1934 937.383 40.9947 951.451 30.5769L985.652 76.7608C977.915 82.4907 971.438 89.7499 966.624 98.0879Z" stroke="#FFFFFF" stroke-width="3" stroke-linejoin="round" stroke-miterlimit="10" fill="#31356E" fill-rule="evenodd"/></g><g clip-path="url(#clip7)"><path d="M951.451 30.5769C979.887 9.51872 1015.78 1.20224 1050.58 7.6109L1040.18 64.1296C1021.04 60.6048 1001.29 65.1789 985.652 76.7609Z" stroke="#FFFFFF" stroke-width="3" stroke-linejoin="round" stroke-miterlimit="10" fill="#2F5F98" fill-rule="evenodd"/></g><g clip-path="url(#clip8)"><path d="M1050.58 7.6108C1103.73 17.399 1144.97 59.5833 1153.54 112.943L1096.8 122.062C1092.09 92.7145 1069.41 69.5132 1040.18 64.1296Z" stroke="#FFFFFF" stroke-width="3" stroke-linejoin="round" stroke-miterlimit="10" fill="#2D8BBA" fill-rule="evenodd"/></g><g clip-path="url(#clip9)"><path d="M1153.54 112.943C1163.15 172.693 1129.5 230.98 1072.95 252.538L1052.48 198.84C1083.58 186.982 1102.09 154.925 1096.8 122.062Z" stroke="#FFFFFF" stroke-width="3" stroke-linejoin="round" stroke-miterlimit="10" fill="#41B8D5" fill-rule="evenodd"/></g><g clip-path="url(#clip10)"><path d="M1072.95 252.538C1007.04 277.665 933.25 244.608 908.123 178.703 894.434 142.796 897.64 102.633 916.855 69.3534L966.624 98.0879C947.228 131.683 958.738 174.641 992.334 194.037 1010.64 204.605 1032.73 206.369 1052.48 198.84Z" stroke="#FFFFFF" stroke-width="3" stroke-linejoin="round" stroke-miterlimit="10" fill="#6CE5E8" fill-rule="evenodd"/></g></g></svg>