<svg width="1280" height="720" xmlns="http://www.w3.org/2000/svg" xmlns:xlink="http://www.w3.org/1999/xlink" overflow="hidden"><defs><clipPath id="clip0"><rect x="0" y="0" width="1280" height="720"/></clipPath><clipPath id="clip1"><rect x="201" y="225" width="439" height="293"/></clipPath><clipPath id="clip2"><rect x="201" y="225" width="439" height="293"/></clipPath><clipPath id="clip3"><rect x="201" y="225" width="439" height="293"/></clipPath><clipPath id="clip4"><rect x="201" y="225" width="439" height="293"/></clipPath><clipPath id="clip5"><rect x="201" y="225" width="439" height="293"/></clipPath><clipPath id="clip6"><rect x="870" y="225" width="439" height="293"/></clipPath><clipPath id="clip7"><rect x="870" y="225" width="439" height="293"/></clipPath><clipPath id="clip8"><rect x="870" y="225" width="439" height="293"/></clipPath><clipPath id="clip9"><rect x="870" y="225" width="439" height="293"/></clipPath><clipPath id="clip10"><rect x="870" y="225" width="439" height="293"/></clipPath></defs><g clip-path="url(#clip0)"><rect x="0" y="0" width="1280" height="720" fill="#FFFFFF" fill-opacity="0"/><text fill="#FFFFFF" font-family="Times New Roman,Times New Roman_MSFontService,sans-serif" font-weight="400" font-size="383" transform="translate(49.4078 498)">F</text><g clip-path="url(#clip1)"><path d="M307.22 306.072C316.236 290.456 328.366 276.86 342.857 266.129L378.087 313.702C370.117 319.604 363.446 327.082 358.487 335.671Z" fill="#7F7F7F" fill-rule="evenodd"/></g><g clip-path="url(#clip2)"><path d="M342.857 266.129C372.149 244.437 409.127 235.87 444.973 242.472L434.251 300.691C414.536 297.06 394.198 301.772 378.087 313.702Z" fill="#A6A6A6" fill-rule="evenodd"/></g><g clip-path="url(#clip3)"><path d="M444.973 242.471C499.723 252.554 542.198 296.008 551.032 350.973L492.584 360.367C487.725 330.136 464.364 306.236 434.252 300.691Z" fill="#BFBFBF" fill-rule="evenodd"/></g><g clip-path="url(#clip4)"><path d="M551.032 350.973C560.924 412.521 526.26 472.562 468.011 494.769L446.923 439.455C478.959 427.24 498.025 394.218 492.584 360.367Z" fill="#D9D9D9" fill-rule="evenodd"/></g><g clip-path="url(#clip5)"><path d="M468.011 494.769C400.124 520.652 324.108 486.6 298.226 418.712 284.124 381.724 287.428 340.353 307.22 306.072L358.487 335.671C338.507 370.277 350.364 414.528 384.97 434.508 403.825 445.394 426.579 447.21 446.922 439.454Z" fill="#F2F2F2" fill-rule="evenodd"/></g><rect x="202" y="226" width="439" height="292" stroke="#0000FF" stroke-width="8" stroke-linejoin="round" stroke-miterlimit="10" stroke-opacity="0" fill="none"/><text fill="#FFFFFF" font-family="Times New Roman,Times New Roman_MSFontService,sans-serif" font-weight="400" font-size="383" transform="translate(564.852 498)">LI</text><g clip-path="url(#clip6)"><path d="M975.862 306.072C984.877 290.456 997.008 276.86 1011.5 266.129L1046.73 313.702C1038.76 319.604 1032.09 327.082 1027.13 335.671Z" fill="#7F7F7F" fill-rule="evenodd"/></g><g clip-path="url(#clip7)"><path d="M1011.5 266.129C1040.79 244.437 1077.77 235.87 1113.62 242.472L1102.89 300.691C1083.18 297.06 1062.84 301.772 1046.73 313.702Z" fill="#A6A6A6" fill-rule="evenodd"/></g><g clip-path="url(#clip8)"><path d="M1113.61 242.471C1168.36 252.554 1210.84 296.008 1219.67 350.973L1161.23 360.367C1156.37 330.136 1133.01 306.236 1102.89 300.691Z" fill="#BFBFBF" fill-rule="evenodd"/></g><g clip-path="url(#clip9)"><path d="M1219.67 350.973C1229.57 412.521 1194.9 472.562 1136.65 494.769L1115.56 439.455C1147.6 427.24 1166.67 394.218 1161.23 360.367Z" fill="#D9D9D9" fill-rule="evenodd"/></g><g clip-path="url(#clip10)"><path d="M1136.65 494.769C1068.77 520.652 992.75 486.6 966.868 418.712 952.766 381.724 956.069 340.353 975.862 306.072L1027.13 335.671C1007.15 370.277 1019.01 414.528 1053.61 434.508 1072.47 445.394 1095.22 447.21 1115.56 439.454Z" fill="#F2F2F2" fill-rule="evenodd"/></g><rect x="870" y="226" width="439" height="292" stroke="#0000FF" stroke-width="8" stroke-linejoin="round" stroke-miterlimit="10" stroke-opacity="0" fill="none"/></g></svg>