<svg width="1280" height="720" xmlns="http://www.w3.org/2000/svg" xmlns:xlink="http://www.w3.org/1999/xlink" overflow="hidden"><defs><clipPath id="clip0"><rect x="0" y="0" width="1280" height="720"/></clipPath><clipPath id="clip1"><rect x="96" y="0" width="1087" height="723"/></clipPath><clipPath id="clip2"><rect x="96" y="0" width="1087" height="723"/></clipPath><clipPath id="clip3"><rect x="96" y="0" width="1087" height="723"/></clipPath><clipPath id="clip4"><rect x="96" y="0" width="1087" height="723"/></clipPath><clipPath id="clip5"><rect x="96" y="0" width="1087" height="723"/></clipPath></defs><g clip-path="url(#clip0)"><rect x="0" y="0" width="1280" height="720" fill="#FFFFFF" fill-opacity="0"/><g clip-path="url(#clip1)"><path d="M348.017 193.357C371.124 153.335 402.212 118.491 439.351 90.9876L529.643 212.913C509.217 228.04 492.118 247.204 479.409 269.217Z" stroke="#FFFFFF" stroke-width="8" stroke-linejoin="round" stroke-miterlimit="10" fill="#31356E" fill-rule="evenodd"/></g><g clip-path="url(#clip2)"><path d="M439.352 90.9876C514.422 35.3939 609.194 13.4384 701.064 30.3573L673.585 179.567C623.056 170.261 570.932 182.337 529.643 212.913Z" stroke="#FFFFFF" stroke-width="8" stroke-linejoin="round" stroke-miterlimit="10" fill="#2F5F98" fill-rule="evenodd"/></g><g clip-path="url(#clip3)"><path d="M701.063 30.357C841.38 56.198 950.24 167.564 972.88 308.433L823.084 332.509C810.632 255.031 750.759 193.779 673.585 179.567Z" stroke="#FFFFFF" stroke-width="8" stroke-linejoin="round" stroke-miterlimit="10" fill="#2D8BBA" fill-rule="evenodd"/></g><g clip-path="url(#clip4)"><path d="M972.88 308.433C998.232 466.174 909.391 620.051 760.108 676.966L706.059 535.202C788.165 503.899 837.028 419.266 823.084 332.509Z" stroke="#FFFFFF" stroke-width="8" stroke-linejoin="round" stroke-miterlimit="10" fill="#41B8D5" fill-rule="evenodd"/></g><g clip-path="url(#clip5)"><path d="M760.108 676.967C586.12 743.3 391.301 656.029 324.967 482.041 288.826 387.246 297.292 281.216 348.018 193.358L479.409 269.217C428.203 357.908 458.591 471.318 547.283 522.524 595.605 550.423 653.922 555.079 706.059 535.202Z" stroke="#FFFFFF" stroke-width="8" stroke-linejoin="round" stroke-miterlimit="10" fill="#6CE5E8" fill-rule="evenodd"/></g></g></svg>